# xmcd CD database file
#
# Track frame offsets:
#	150
#	35294
#	65783
#	117766
#	160815
#	185661
#	255579
#
# Disc length: 3950 seconds
#
# Revision: 1
# Processed by: cddbd v1.5.2PL0 Copyright (c) Steve Scherf et al.
# Submitted via: CDex 1.51
#
DISCID=5b0f6c07
DTITLE=Zoot Sims - Love For Sale
DYEAR=1978
DGENRE=Jazz
TTITLE0=Softly As In A Morning Sunrise
TTITLE1=I'll Remember April
TTITLE2=Jean
TTITLE3=Do Nothing Till You Hear From Me-In A Mellow Tone
TTITLE4=In The Middle Of A Kiss
TTITLE5=Love For Sale
TTITLE6=Emily
EXTD=YEAR: 1978
EXTT0=
EXTT1=
EXTT2=
EXTT3=
EXTT4=
EXTT5=
EXTT6=
PLAYORDER=
